<?xml version="1.0" encoding="UTF-8" standalone="no"?>
<!-- Created with Inkscape (http://www.inkscape.org/) -->

<svg
   xmlns:dc="http://purl.org/dc/elements/1.1/"
   xmlns:cc="http://creativecommons.org/ns#"
   xmlns:rdf="http://www.w3.org/1999/02/22-rdf-syntax-ns#"
   xmlns:svg="http://www.w3.org/2000/svg"
   xmlns="http://www.w3.org/2000/svg"
   xmlns:xlink="http://www.w3.org/1999/xlink"
   xmlns:sodipodi="http://sodipodi.sourceforge.net/DTD/sodipodi-0.dtd"
   xmlns:inkscape="http://www.inkscape.org/namespaces/inkscape"
   width="691"
   height="277"
   id="svg2"
   version="1.1">
  <g
     inkscape:label="Layer 1"
     inkscape:groupmode="layer"
     id="layer1"
     transform="translate(-270.56828,-675.08422)">
    <path
       id="path12719"
       d="m 486.58185,675.08556 -30.59123,0 0,31.38068 34.11087,0 0,-31.38068 -3.51964,0"
       style="fill:#e45482;fill-rule:nonzero;stroke:none" />
    <path
       id="path12721"
       d="m 486.58185,725.31438 -30.59123,0 0,171.37669 34.11087,0 0,-171.37669 -3.51964,0"
       style="fill:#e45482;fill-rule:nonzero;stroke:none" />
    <path
       id="path12723"
       d="m 550.33003,744.39279 c 0,-7.4669 0,-19.01262 0,-19.01262 l -32.56486,0 0,171.3109 34.11087,0 0,-96.31304 c 0,-7.00638 0.98681,-13.55225 2.86176,-19.40734 1.87494,-5.72352 4.67092,-10.78917 8.38791,-15.09826 3.61832,-4.2104 8.25635,-7.53267 13.74961,-9.90103 5.59195,-2.33546 12.40096,-3.48674 20.09811,-3.48674 9.50631,0 16.71005,2.56572 22.00595,7.86162 5.2959,5.2959 7.82873,12.36806 7.82873,21.64412 l 0,114.70067 34.11086,0 0,-111.50998 c 0,-9.17737 -0.92102,-17.59818 -2.79597,-25.16375 -1.87495,-7.82872 -5.26301,-14.67063 -10.0655,-20.36126 -4.83539,-5.65773 -11.21679,-10.19708 -18.88104,-13.38778 -7.59847,-3.09201 -17.13767,-4.70381 -28.35445,-4.70381 -21.7428,0 -38.61732,7.73004 -50.49198,22.8283"
       style="fill:#e45482;fill-rule:nonzero;stroke:none" />
    <path
       id="path12725"
       d="m 719.43704,676.82893 -30.52545,0 0,219.86214 34.07798,0 c 0,0 0,-61.31404 0,-64.24159 1.80916,-1.74337 16.67715,-15.42719 21.1836,-19.6376 4.2433,6.41429 54.96554,83.87919 54.96554,83.87919 l 42.79483,0 c 0,0 -68.61646,-102.69444 -71.84005,-107.56272 4.14461,-3.84857 69.57038,-63.84686 69.57038,-63.84686 l -46.74209,0 c 0,0 -59.80092,57.30099 -69.93221,67.07045 0,-14.40748 0,-115.52301 0,-115.52301 l -3.55253,0"
       style="fill:#e45482;fill-rule:nonzero;stroke:none" />
    <path
       id="path12727"
       d="m 428.12957,777.48395 c -3.25648,-10.78917 -8.22345,-20.42705 -14.67063,-28.6834 -6.61165,-8.28923 -14.8351,-14.99957 -24.70324,-19.83496 -9.83525,-4.90117 -21.51255,-7.4011 -34.67007,-7.4011 -11.84176,0 -22.86118,2.20388 -32.79511,6.48008 -6.74323,2.92755 -12.17071,7.17085 -16.61137,12.43385 0,-5.75641 0,-15.09825 0,-15.09825 l -34.11087,0 0,226.70405 34.11087,0 c 0,0 0,-56.44576 0,-71.18218 1.80916,1.97363 3.78279,3.81568 5.92089,5.42748 4.57223,3.51964 9.47341,6.24982 14.57195,8.25634 5.06564,2.00652 10.29576,3.45385 15.49298,4.34198 5.13143,0.88814 9.86813,1.28286 14.04565,1.28286 12.96015,0 24.47298,-2.33546 34.30823,-6.97348 9.80235,-4.67092 18.15737,-11.151 24.70324,-19.30866 6.44718,-8.02609 11.38125,-17.56529 14.53906,-28.28867 3.1907,-10.72338 4.7696,-22.17042 4.7696,-34.07797 0,-11.97334 -1.64469,-23.42038 -4.90118,-34.07797 z m -33.22273,54.93264 c -1.64469,7.17084 -4.2433,13.61803 -7.82873,19.14419 -3.45385,5.42747 -8.05898,9.83524 -13.7825,13.19041 -5.62484,3.22359 -12.89437,4.90117 -21.47965,4.90117 -8.68396,0 -16.11796,-1.61179 -22.10463,-4.80249 -6.05246,-3.22359 -11.01942,-7.53268 -14.80221,-12.82858 -3.81568,-5.2959 -6.67744,-11.61151 -8.4537,-18.61789 -1.80916,-7.20374 -2.73019,-14.76931 -2.73019,-22.49936 0,-7.33531 0.85524,-14.63774 2.59861,-21.7099 1.67759,-6.97349 4.40777,-13.2891 8.15766,-18.68368 3.717,-5.36169 8.5195,-9.76946 14.3417,-13.12462 5.75641,-3.25649 12.96015,-4.90118 21.38097,-4.90118 8.02608,0 15.09825,1.5789 20.98624,4.67092 5.92088,3.1578 10.82206,7.36821 14.63774,12.59832 3.81568,5.39459 6.71033,11.54573 8.61817,18.42053 1.90784,6.97348 2.89466,14.17723 2.89466,21.47965 0,7.73004 -0.82235,15.3943 -2.43414,22.76251"
       style="fill:#e45482;fill-rule:nonzero;stroke:none" />
    <path
       id="path12729"
       d="m 858.87384,858.10664 c 0,27.46632 23.05856,49.867 51.34722,49.867 28.32156,0 51.34722,-22.40068 51.34722,-49.867 0,-27.53211 -23.02566,-49.89989 -51.34722,-49.89989 -28.28866,0 -51.34722,22.36778 -51.34722,49.89989 z m 6.05246,-0.0329 c 0,-24.27562 20.26258,-44.0119 45.26187,-44.0119 25.09796,0 45.42633,19.73628 45.42633,44.0119 0,24.34141 -20.32837,44.07769 -45.42633,44.07769 -24.99929,0 -45.26187,-19.73628 -45.26187,-44.07769"
       style="fill:#111015;fill-rule:nonzero;stroke:none" />
    <path
       id="path12731"
       d="m 904.26728,842.87681 0,5.72352 -8.25634,0 0,24.9335 c 0,0.75656 0,1.38154 0.32894,1.84206 0,0.4934 0.36183,0.85523 0.72366,1.11838 0.39473,0.23026 0.88813,0.39473 1.5789,0.49341 0.65788,0.0658 1.51312,0.0987 2.59861,0.0987 l 3.12491,0 0,5.75642 -5.16432,0 c -1.74337,0 -3.25649,-0.0987 -4.50645,-0.32894 -1.24997,-0.23026 -2.26967,-0.65788 -3.02623,-1.28286 -0.75656,-0.62498 -1.34865,-1.51311 -1.71048,-2.6315 -0.36183,-1.15129 -0.55919,-2.63151 -0.55919,-4.50645 l 0,-25.4927 -7.03928,0 0,-5.72352 7.03928,0 0,-12.10491 6.77612,0 0,12.10491 8.25634,0"
       style="fill:#111015;fill-rule:nonzero;stroke:none" />
    <path
       id="path12733"
       d="m 921.63521,882.84278 -15.29562,-39.96597 7.56558,0 11.57861,33.32142 0.32894,0 11.21679,-33.32142 7.13795,0 -15.09825,39.96597 -7.26953,0"
       style="fill:#111015;fill-rule:nonzero;stroke:none" />
  </g>
</svg>
